<?xml version="1.0" encoding="UTF-8" standalone="no"?>
<svg
   xmlns:dc="http://purl.org/dc/elements/1.1/"
   xmlns:cc="http://creativecommons.org/ns#"
   xmlns:rdf="http://www.w3.org/1999/02/22-rdf-syntax-ns#"
   xmlns:svg="http://www.w3.org/2000/svg"
   xmlns="http://www.w3.org/2000/svg"
   xmlns:sodipodi="http://sodipodi.sourceforge.net/DTD/sodipodi-0.dtd"
   xmlns:inkscape="http://www.inkscape.org/namespaces/inkscape"
   width="24"
   height="24"
   viewBox="0 0 24 24"
   version="1.1"
   id="svg26"
   sodipodi:docname="delete.svg"
   inkscape:version="0.92.4 (5da689c313, 2019-01-14)">
  <metadata
     id="metadata32">
    <rdf:RDF>
      <cc:Work
         rdf:about="">
        <dc:format>image/svg+xml</dc:format>
        <dc:type
           rdf:resource="http://purl.org/dc/dcmitype/StillImage" />
      </cc:Work>
    </rdf:RDF>
  </metadata>
  <defs
     id="defs30" />
  <sodipodi:namedview
     pagecolor="#ffffff"
     bordercolor="#666666"
     borderopacity="1"
     objecttolerance="10"
     gridtolerance="10"
     guidetolerance="10"
     inkscape:pageopacity="0"
     inkscape:pageshadow="2"
     inkscape:window-width="1366"
     inkscape:window-height="705"
     id="namedview28"
     showgrid="false"
     inkscape:zoom="15.850977"
     inkscape:cx="1.8427656"
     inkscape:cy="14.999705"
     inkscape:window-x="-8"
     inkscape:window-y="306"
     inkscape:window-maximized="1"
     inkscape:current-layer="g4578" />
  <path
     d="M0 0h24v24H0z"
     fill="none"
     id="path24" />
  <g
     id="g4578"
     transform="matrix(0.77919342,0,0,0.77919342,-1.1628801,-0.26549793)">
    <path
       id="path4564"
       d="M 0,0 H 24 V 24 H 0 Z"
       inkscape:connector-curvature="0"
       style="fill:none" />
    <path
       id="path4566"
       d="M 11.99,0.76522042 C 6.47,0.76522042 2,5.2452203 2,10.765222 c 0,5.52 4.47,10 9.99,10 5.53,0 10.01,-4.48 10.01,-10 C 22,5.2452203 17.52,0.76522042 11.99,0.76522042 Z M 12,18.765222 c -4.42,0 -8,-3.58 -8,-8 0,-4.4200017 3.58,-8.0000017 8,-8.0000017 4.42,0 8,3.58 8,8.0000017 0,4.42 -3.58,8 -8,8 z M 12.5,5.7652203 H 11 v 6.0000017 l 5.25,3.15 0.75,-1.23 -4.5,-2.67 z"
       inkscape:connector-curvature="0"
       style="fill:#909890" />
  </g>
  <rect
     style="fill:none;stroke-width:1.10726118"
     id="rect4580"
     width="9.6524019"
     height="11.29268"
     x="11.791936"
     y="8.6021757" />
  <path
     d="m 12.910321,22.275904 c 0,0.871052 0.744222,1.58373 1.653826,1.58373 h 6.615305 c 0.909605,0 1.653824,-0.712678 1.653824,-1.58373 V 12.773533 H 12.910321 Z M 23.660189,10.397937 H 20.765996 L 19.93908,9.6060765 h -4.134565 l -0.826913,0.7918605 h -2.894194 v 1.583732 h 11.576781 z"
     id="path22"
     style="fill:#909890;stroke-width:0.80919886"
     inkscape:connector-curvature="0" />
</svg>
