<?xml version="1.0" encoding="UTF-8" standalone="no"?>
<svg
   xmlns:dc="http://purl.org/dc/elements/1.1/"
   xmlns:cc="http://creativecommons.org/ns#"
   xmlns:rdf="http://www.w3.org/1999/02/22-rdf-syntax-ns#"
   xmlns:svg="http://www.w3.org/2000/svg"
   xmlns="http://www.w3.org/2000/svg"
   xmlns:sodipodi="http://sodipodi.sourceforge.net/DTD/sodipodi-0.dtd"
   xmlns:inkscape="http://www.inkscape.org/namespaces/inkscape"
   width="15"
   height="15"
   viewBox="0 0 15 15"
   version="1.1"
   id="svg64"
   sodipodi:docname="remove_red_eye.svg"
   inkscape:version="0.92.4 (5da689c313, 2019-01-14)">
  <metadata
     id="metadata70">
    <rdf:RDF>
      <cc:Work
         rdf:about="">
        <dc:format>image/svg+xml</dc:format>
        <dc:type
           rdf:resource="http://purl.org/dc/dcmitype/StillImage" />
        <dc:title></dc:title>
      </cc:Work>
    </rdf:RDF>
  </metadata>
  <defs
     id="defs68" />
  <sodipodi:namedview
     pagecolor="#ffffff"
     bordercolor="#666666"
     borderopacity="1"
     objecttolerance="10"
     gridtolerance="10"
     guidetolerance="10"
     inkscape:pageopacity="0"
     inkscape:pageshadow="2"
     inkscape:window-width="1366"
     inkscape:window-height="705"
     id="namedview66"
     showgrid="false"
     showguides="false"
     inkscape:zoom="19.666667"
     inkscape:cx="-3.3724594"
     inkscape:cy="11.64165"
     inkscape:window-x="-8"
     inkscape:window-y="306"
     inkscape:window-maximized="1"
     inkscape:current-layer="svg64">
    <sodipodi:guide
       position="63.457627,18.711864"
       orientation="0.70710678,0.70710678"
       id="guide3775"
       inkscape:locked="false" />
  </sodipodi:namedview>
  <path
     d="M 0,-9 H 24 V 15 H 0 Z"
     id="path60"
     inkscape:connector-curvature="0"
     style="fill:none" />
  <path
     d="m 7.5,2.3862273 c -3.4090909,0 -6.3204545,2.1204545 -7.5,5.1136363 1.1795455,2.9931814 4.0909091,5.1136364 7.5,5.1136364 3.409091,0 6.320455,-2.120455 7.5,-5.1136364 C 13.820455,4.5066818 10.909091,2.3862273 7.5,2.3862273 Z m 0,8.5227277 c -1.8818182,0 -3.4090909,-1.527273 -3.4090909,-3.4090914 0,-1.8818181 1.5272727,-3.4090909 3.4090909,-3.4090909 1.8818182,0 3.409091,1.5272728 3.409091,3.4090909 0,1.8818184 -1.5272728,3.4090914 -3.409091,3.4090914 z m 0,-5.4545459 c -1.1318182,0 -2.0454545,0.9136364 -2.0454545,2.0454545 0,1.1318184 0.9136363,2.0454544 2.0454545,2.0454544 1.1318182,0 2.0454545,-0.913636 2.0454545,-2.0454544 C 9.5454545,6.3680455 8.6318182,5.4544091 7.5,5.4544091 Z"
     id="path62"
     inkscape:connector-curvature="0"
     style="stroke-width:0.68181819;fill:#ffffff" />
</svg>
